<svg xmlns="http://www.w3.org/2000/svg" width="1151" height="1052" fill="none"><path fill="#969EAA" d="m685.497 641.836-356.11 205.61 353.89 204.324 356.113-205.614-353.893-204.32z"/><path fill="#2D2F33" d="M284.497 685.126v79.32l353.9 204.32 356.11-205.6v-79.32l-710.01 1.28z"/><mask id="a" width="711" height="286" x="284" y="683" maskUnits="userSpaceOnUse" style="mask-type:luminance"><path fill="#fff" d="M284.497 685.126v79.32l353.9 204.32 356.11-205.6v-79.32l-710.01 1.28z"/></mask><g mask="url(#a)"><path fill="#181A1C" stroke="#000" stroke-linecap="round" stroke-linejoin="round" stroke-width="2" d="m637.607 1069.39-438.33 257.4V624.207l438.33-257.4v702.583z"/><path fill="#40474C" d="M941.627 713.396h-29.97v418.784h29.97V713.396zm-374.43 97.061h-27.5v460.073h27.5V810.457z"/><path stroke="#000" stroke-miterlimit="10" stroke-width="2" d="M941.965 873.626c3.699-6.486 3.663-13.475-.079-15.608-3.742-2.134-9.774 1.395-13.473 7.881-3.698 6.487-3.662 13.475.08 15.609 3.742 2.134 9.774-1.395 13.472-7.882zm-5.168-116.91-14.76 25.66-14.75-8.62 14.75-25.67 14.76 8.63zm-486.045 69.651c3.742-2.134 3.778-9.122.079-15.608-3.698-6.487-9.73-10.016-13.472-7.882-3.743 2.134-3.778 9.122-.08 15.608 3.699 6.487 9.73 10.016 13.473 7.882zm57.055-38.441v27.15l-32.42 18.96v225.034l-63.77 37.27v40.96"/><path stroke="#000" stroke-miterlimit="10" stroke-width="2" d="M444.047 825.707v177.113l-29.48 17.24"/><path stroke="#000" stroke-miterlimit="10" stroke-width="2" d="M449.757 965.986v-110.15l-12.42-7.17v110.15l12.42 7.17z"/><path stroke="#000" stroke-miterlimit="10" stroke-width="2" d="M476.357 657.357v63.46l-63.14 36.91v191.12l-32.51 19v26.08m-.07-259.601v157.69l-32.21 18.83v37.03l-31.48 18.4v39.074l31.79 55.28v36.67m670.623-87.07v-80.263l-62.893-36.76v-108l-26.68-15.59m-32.61-35.29-113.29-68.94m-13.73-65.61-59.15 102.88v113.49l94.34 55.15v31.92m-78.57-26.381-17.18 9.92v77.54l17.18-9.92m0-58.11-17.18 9.92m16.1 30.041-15.42 8.9"/><path stroke="#000" stroke-miterlimit="10" stroke-width="2" d="m928.317 866.037-183.51-107.28v-27.48m129.29 210.789v-35.78l-35.21 20.33v-41.71l-63.8 36.83v39.34l-35.38 20.43v38.154"/><path stroke="#000" stroke-miterlimit="10" stroke-width="2" d="M711.007 1148.7v-112.47l192.18-110.964v112.484l-192.18 110.95zm178.91-215.773v-18.97m-30.79 36.75v-20.75m-14.63 29.199v-20.76m-14.63 29.2v-20.75m-14.63 29.201v-20.75m-14.63 29.199v-20.76m102.58-1.83 33.91-19.58 63.973 37.39v-216.15"/><path stroke="#000" stroke-miterlimit="10" stroke-width="2" d="M838.427 962.656v36.64l-96.17 55.524v35.32l131.84-76.12v88.29m1.864-119.664c2.378-4.169 2.352-8.662-.056-10.035-2.409-1.373-6.288.893-8.665 5.062-2.378 4.17-2.352 8.663.056 10.036 2.409 1.373 6.288-.893 8.665-5.063z"/><path stroke="#000" stroke-linecap="round" stroke-linejoin="round" stroke-width="2" d="M603.647 869.387v337.893m69.49-337.893v337.893m0-337.893v337.893m-69.49-337.893v337.893"/><path stroke="#000" stroke-miterlimit="10" stroke-width="2" d="M284.497 426.546v337.9l353.9 204.32 356.11-205.6v-337.91l-710.01 1.29z"/></g><path stroke="#000" stroke-miterlimit="10" stroke-width="2" d="m994.507 683.846-710.01 1.28"/><path fill="url(#b)" stroke="#000" stroke-miterlimit="10" stroke-width="2" d="m640.617 479.525-356.12 205.6 353.9 204.32 356.11-205.6-353.89-204.32z"/><path fill="#000" stroke="#000" stroke-miterlimit="10" stroke-width="2" d="m640.477 505.045-311.77 180 309.83 178.88 311.77-180-309.83-178.88z"/><path fill="#000" d="m640.227 550.076-233.54 134.83 232.08 134 233.55-134.84-232.09-133.99z"/><path fill="url(#c)" stroke="#000" stroke-miterlimit="10" stroke-width="2" d="m640.227 574.286 211.12 121.89 20.97-12.11-232.09-133.99-233.54 134.83 20.96 12.11 212.58-122.73z"/><mask id="d" width="467" height="269" x="406" y="550" maskUnits="userSpaceOnUse" style="mask-type:luminance"><path fill="#fff" d="m640.227 550.076-233.54 134.83 232.08 134 233.55-134.84-232.09-133.99z"/></mask><g mask="url(#d)"><path fill="#2D2F33" stroke="#000" stroke-miterlimit="10" stroke-width="2" d="M532.257 684.687v129.9l106.91 61.73 107.59-62.12v-129.9l-214.5.39z"/><path stroke="#000" stroke-miterlimit="10" stroke-width="2" d="M649.067 737.086v73.77m-19.77-73.77v73.77"/><path fill="#3E4044" stroke="#000" stroke-miterlimit="10" stroke-width="2" d="m629.927 631.886-82.48 47.62c-3.97 2.29-3.97 8.03 0 10.32l81.85 47.26a19.778 19.778 0 0 0 19.77 0l82.48-47.62c3.97-2.29 3.97-8.03 0-10.32l-81.85-47.26a19.778 19.778 0 0 0-19.77 0z"/><path stroke="#000" stroke-miterlimit="10" stroke-width="2" d="M556.097 694.826v77.4"/><path fill="#2D2F33" d="M594.847 717.197v29.54l-11.35 10.06v48.3"/><path stroke="#000" stroke-miterlimit="10" stroke-width="2" d="M594.847 717.197v29.54l-11.35 10.06v48.3m121.12-99.251v80.47"/><path fill="#3E4044" stroke="#000" stroke-miterlimit="10" stroke-width="2" d="m639.837 622.566-107.58 62.12 106.91 61.72 107.59-62.11-106.92-61.73z"/></g><path stroke="#000" stroke-linecap="round" stroke-linejoin="round" stroke-width="2" d="m640.227 550.076-233.54 134.83 232.08 134 233.55-134.84-232.09-133.99z"/><path fill="url(#e)" d="m858.577 683.196 163.323-410.39v-1.52h-.09c-.45-4.1-2.7-8.02-6.78-10.38l-352.003-108.94a45.59 45.59 0 0 0-45.58 0l-329.85 109.78c-4.28 2.47-6.53 6.67-6.81 10.99h-.06l139.71 410.23h.15c-.73 5.23 1.5 10.82 6.72 13.84l188.69 108.94a45.59 45.59 0 0 0 45.58 0l190.14-109.78c4.87-2.81 7.12-7.86 6.82-12.77h.05-.01z"/><path fill="url(#f)" d="M640.187 581.625h-10.56v180.91h10.56v-180.91z" opacity=".5"/><path fill="#fff" d="M634.907 586.365a5.82 5.82 0 1 0 0-11.64 5.82 5.82 0 0 0 0 11.64z"/><path fill="url(#g)" d="M626.867 328.346c12.797 0 23.17-10.374 23.17-23.17 0-12.797-10.373-23.17-23.17-23.17-12.796 0-23.17 10.373-23.17 23.17 0 12.796 10.374 23.17 23.17 23.17z"/><path fill="url(#h)" d="M639.987 302.995c12.162 0 22.02-9.859 22.02-22.02s-9.858-22.02-22.02-22.02c-12.161 0-22.02 9.859-22.02 22.02s9.859 22.02 22.02 22.02z"/><path fill="#fff" d="M628.617 309.215a6.29 6.29 0 1 0 0-12.58 6.29 6.29 0 0 0 0 12.58zm9.22-23.48a4.19 4.19 0 1 0 .001-8.379 4.19 4.19 0 0 0-.001 8.379z"/><path fill="url(#i)" d="M509.287 748.455c12.797 0 23.17-10.373 23.17-23.17 0-12.796-10.373-23.17-23.17-23.17-12.796 0-23.17 10.374-23.17 23.17 0 12.797 10.374 23.17 23.17 23.17z"/><path fill="url(#j)" d="M522.407 723.095c12.162 0 22.02-9.859 22.02-22.02 0-12.162-9.858-22.02-22.02-22.02-12.161 0-22.02 9.858-22.02 22.02 0 12.161 9.859 22.02 22.02 22.02z"/><path fill="#fff" d="M511.037 729.324a6.29 6.29 0 1 0 0-12.58 6.29 6.29 0 0 0 0 12.58zm9.22-23.489a4.19 4.19 0 1 0 0-8.38 4.19 4.19 0 0 0 0 8.38z"/><path fill="url(#k)" d="M428.997 378.445c14.056 0 25.45-11.394 25.45-25.45s-11.394-25.45-25.45-25.45c-14.055 0-25.45 11.394-25.45 25.45s11.395 25.45 25.45 25.45z"/><path fill="#fff" d="M428.997 359.074a6.08 6.08 0 1 0 0-12.16 6.08 6.08 0 0 0 0 12.16z"/><path fill="url(#l)" d="M809.527 472.565c12.797 0 23.17-10.374 23.17-23.17 0-12.797-10.373-23.17-23.17-23.17-12.796 0-23.17 10.373-23.17 23.17 0 12.796 10.374 23.17 23.17 23.17z"/><path fill="url(#m)" d="M792.717 493.226c12.162 0 22.02-9.859 22.02-22.02 0-12.162-9.858-22.02-22.02-22.02-12.161 0-22.02 9.858-22.02 22.02 0 12.161 9.859 22.02 22.02 22.02z"/><path fill="#fff" d="M809.527 455.265a6.08 6.08 0 1 0 0-12.16 6.08 6.08 0 0 0 0 12.16zm-16.81 20.219a2.95 2.95 0 1 0 0-5.9 2.95 2.95 0 0 0 0 5.9z"/><path fill="url(#n)" d="M764.707 274.785h-8.67v148.59h8.67v-148.59z" opacity=".5"/><path fill="#fff" d="M760.377 279.115a4.33 4.33 0 1 0 0-8.66 4.33 4.33 0 0 0 0 8.66z"/><path fill="url(#o)" d="M524.597 334.395h-8.67v148.59h8.67v-148.59z" opacity=".5"/><path fill="#fff" d="M520.257 338.724a4.33 4.33 0 1 0 0-8.66 4.33 4.33 0 0 0 0 8.66z"/><path fill="url(#p)" d="M791.137 549.766h-8.67v148.59h8.67v-148.59z" opacity=".5"/><path fill="#fff" d="M786.807 554.096a4.33 4.33 0 1 0 0-8.66 4.33 4.33 0 0 0 0 8.66z"/><path fill="#2D2F33" stroke="#000" stroke-linecap="round" stroke-linejoin="round" stroke-width="1.87" d="M760.957 700.977c-26.52 20.72-55.5 27.95-64.72 16.15l-11.4-11.54 10.89-8.51c4.65-12.09 16.02-26.46 31.85-38.83 15.83-12.37 32.53-19.92 45.38-21.5l7.92-6.19 9.4 9.52c.74.6 1.41 1.27 2 2.02 9.22 11.8-4.81 38.16-31.34 58.87h.02v.01z"/><path fill="#2D2F33" stroke="#000" stroke-linecap="round" stroke-linejoin="round" stroke-width="1.87" d="M760.957 700.977c-26.52 20.72-55.5 27.95-64.72 16.15l-11.4-11.54 10.89-8.51c4.65-12.09 16.02-26.46 31.85-38.83 15.83-12.37 32.53-19.92 45.38-21.5l7.92-6.19 9.4 9.52c.74.6 1.41 1.27 2 2.02 9.22 11.8-4.81 38.16-31.34 58.87h.02v.01z"/><path fill="#3E4044" stroke="#000" stroke-linecap="round" stroke-linejoin="round" stroke-width="1.87" d="M744.147 712.186c-21 11.7-40.62 14.27-47.9 4.95l-11.4-11.54 5.51-4.31 37.15-11.05 18.46 20.92c-.6.35-1.21.69-1.81 1.03h-.01z"/><path fill="#38C281" d="M749.559 689.526c26.529-20.72 40.567-47.078 31.355-58.874-9.213-11.796-38.187-4.562-64.717 16.158-26.529 20.72-40.567 47.078-31.355 58.874 9.213 11.796 38.187 4.562 64.717-16.158z"/><path stroke="#000" stroke-linecap="round" stroke-linejoin="round" stroke-width="1.87" d="m751.917 707.477-10.07-12.43m7.712-5.521c26.529-20.72 40.567-47.078 31.355-58.874-9.213-11.796-38.187-4.562-64.717 16.158-26.529 20.72-40.567 47.078-31.355 58.874 9.213 11.796 38.187 4.562 64.717-16.158z"/><path fill="#2D2F33" stroke="#000" stroke-linecap="round" stroke-linejoin="round" stroke-width="1.87" d="M107.917 266.304c26.64-20.57 55.65-27.65 64.8-15.8l11.34 11.6-10.94 8.45c-4.71 12.06-16.17 26.38-32.06 38.65-15.9 12.28-32.64 19.74-45.5 21.25l-7.96 6.14-9.35-9.57c-.74-.6-1.41-1.28-1.99-2.03-9.15-11.85 5.03-38.13 31.65-58.71h.02l-.01.02z"/><path fill="#2D2F33" stroke="#000" stroke-linecap="round" stroke-linejoin="round" stroke-width="1.87" d="M107.917 266.304c26.64-20.57 55.65-27.65 64.8-15.8l11.34 11.6-10.94 8.45c-4.71 12.06-16.17 26.38-32.06 38.65-15.9 12.28-32.64 19.74-45.5 21.25l-7.96 6.14-9.35-9.57c-.74-.6-1.41-1.28-1.99-2.03-9.15-11.85 5.03-38.13 31.65-58.71h.02l-.01.02z"/><path fill="#3E4044" stroke="#000" stroke-linecap="round" stroke-linejoin="round" stroke-width="1.87" d="M124.787 255.195c21.07-11.6 40.7-14.05 47.93-4.69l11.34 11.6-5.53 4.28-37.21 10.85-18.34-21.02c.6-.35 1.22-.68 1.82-1.02h-.01z"/><path fill="#38C281" d="M152.391 320.861c26.641-20.576 40.822-46.858 31.673-58.704-9.148-11.845-38.161-4.768-64.803 15.808-26.64 20.576-40.821 46.858-31.673 58.704 9.149 11.845 38.162 4.768 64.803-15.808z"/><path stroke="#000" stroke-linecap="round" stroke-linejoin="round" stroke-width="1.87" d="m116.997 259.875 10 12.48m25.394 48.506c26.641-20.576 40.822-46.858 31.673-58.704-9.148-11.845-38.161-4.768-64.803 15.808-26.64 20.576-40.821 46.858-31.673 58.704 9.149 11.845 38.162 4.768 64.803-15.808z"/><path fill="#2D2F33" stroke="#000" stroke-linecap="round" stroke-linejoin="round" stroke-width="1.87" d="M77.797 112.766c-4.29 33.38-19.8 58.9-34.65 56.99l-16.22-.19 1.76-13.71c-5.2-11.86-7.22-30.08-4.66-50 2.56-19.92 9.12-37.04 17.14-47.2l1.29-9.97 13.38.15c.95-.1 1.9-.09 2.85.03 14.85 1.91 23.41 30.52 19.13 63.9h-.02z"/><path fill="#2D2F33" stroke="#000" stroke-linecap="round" stroke-linejoin="round" stroke-width="1.87" d="M77.797 112.766c-4.29 33.38-19.8 58.9-34.65 56.99l-16.22-.19 1.76-13.71c-5.2-11.86-7.22-30.08-4.66-50 2.56-19.92 9.12-37.04 17.14-47.2l1.29-9.97 13.38.15c.95-.1 1.9-.09 2.85.03 14.85 1.91 23.41 30.52 19.13 63.9h-.02z"/><path fill="#3E4044" stroke="#000" stroke-linecap="round" stroke-linejoin="round" stroke-width="1.87" d="M73.717 132.564c-6.7 23.1-18.84 38.71-30.58 37.2l-16.22-.19.89-6.94 18.64-33.98 27.83 1.89c-.18.67-.38 1.34-.56 2.01v.01z"/><path fill="#38C281" d="M61.524 112.566c4.289-33.388-4.269-62-19.114-63.906-14.844-1.907-30.355 23.613-34.644 57-4.29 33.387 4.268 61.999 19.113 63.906 14.845 1.907 30.356-23.613 34.645-57z"/><path stroke="#000" stroke-linecap="round" stroke-linejoin="round" stroke-width="1.87" d="m75.927 123.744-15.9-1.76m1.497-9.418c4.289-33.388-4.269-62-19.114-63.906-14.844-1.907-30.355 23.613-34.644 57-4.29 33.387 4.268 61.999 19.113 63.906 14.845 1.907 30.356-23.613 34.645-57z"/><path fill="#2D2F33" stroke="#000" stroke-linecap="round" stroke-linejoin="round" stroke-width="1.87" d="M396.877 560.546c15.57-2.1 37.34 7.21 55.56 25.27 18.21 18.05 27.72 39.74 25.76 55.33l4.45 4.41-10.63 9.1c-13.65 13.78-44.55 5.28-69.01-18.97-24.47-24.25-33.24-55.07-19.59-68.84.73-.74 1.52-1.39 2.33-2l8.29-7.1 2.83 2.8h.01z"/><path fill="#3E4044" stroke="#000" stroke-linecap="round" stroke-linejoin="round" stroke-width="1.87" d="m421.317 650.256 14.06-15.84-22.37-22.74-15.18 18.48c1.64 1.87 3.37 3.71 5.19 5.52 5.84 5.78 12.05 10.66 18.31 14.57l-.01.01z"/><path fill="#181A1C" stroke="#000" stroke-linecap="round" stroke-linejoin="round" stroke-width="1.87" d="m478.357 634.536-42.56-3.46-14.49 19.19c19.94 12.45 40.33 14.88 50.71 4.39l10.63-9.1-4.45-4.41c.26-2.1.3-4.32.16-6.61z"/><path stroke="#000" stroke-linecap="round" stroke-linejoin="round" stroke-width="1.87" d="M396.877 560.546c15.57-2.1 37.34 7.21 55.56 25.27 18.21 18.05 27.72 39.74 25.76 55.33l4.45 4.41-10.63 9.1c-13.65 13.78-44.55 5.28-69.01-18.97-24.47-24.25-33.24-55.07-19.59-68.84.73-.74 1.52-1.39 2.33-2l8.29-7.1 2.83 2.8h.01z"/><path fill="#38C281" stroke="#000" stroke-linecap="round" stroke-linejoin="round" stroke-width="1.87" d="M482.65 645.505c13.649-13.773 4.879-44.594-19.589-68.841-24.467-24.246-55.366-32.736-69.015-18.962-13.649 13.773-4.879 44.594 19.588 68.84 24.467 24.247 55.367 32.736 69.016 18.963z"/><path stroke="#000" stroke-linecap="round" stroke-linejoin="round" stroke-width="1.87" d="M482.65 645.505c13.649-13.773 4.879-44.594-19.589-68.841-24.467-24.246-55.366-32.736-69.015-18.962-13.649 13.773-4.879 44.594 19.588 68.84 24.467 24.247 55.367 32.736 69.016 18.963z"/><path fill="#2D2F33" stroke="#000" stroke-linecap="round" stroke-linejoin="round" stroke-width="1.87" d="M1040.09 32.085c15.57-2.1 37.34 7.21 55.56 25.27 18.21 18.05 27.72 39.74 25.76 55.33l4.45 4.41-10.63 9.1c-13.65 13.78-44.55 5.28-69.01-18.97-24.46-24.25-33.24-55.07-19.59-68.84.73-.74 1.52-1.39 2.33-2l8.29-7.1 2.83 2.8h.01z"/><path fill="#3E4044" stroke="#000" stroke-linecap="round" stroke-linejoin="round" stroke-width="1.87" d="m1064.53 121.805 14.06-15.84-22.37-22.74-15.18 18.48c1.64 1.87 3.37 3.71 5.19 5.52 5.84 5.78 12.05 10.66 18.31 14.57l-.01.01z"/><path fill="#181A1C" stroke="#000" stroke-linecap="round" stroke-linejoin="round" stroke-width="1.87" d="m1121.57 106.085-42.56-3.46-14.49 19.19c19.94 12.45 40.33 14.88 50.71 4.39l10.63-9.1-4.45-4.41c.26-2.1.3-4.32.16-6.61z"/><path stroke="#000" stroke-linecap="round" stroke-linejoin="round" stroke-width="1.87" d="M1040.09 32.085c15.57-2.1 37.34 7.21 55.56 25.27 18.21 18.05 27.72 39.74 25.76 55.33l4.45 4.41-10.63 9.1c-13.65 13.78-44.55 5.28-69.01-18.97-24.46-24.25-33.24-55.07-19.59-68.84.73-.74 1.52-1.39 2.33-2l8.29-7.1 2.83 2.8h.01z"/><path fill="#38C281" stroke="#000" stroke-linecap="round" stroke-linejoin="round" stroke-width="1.87" d="M1125.86 117.048c13.65-13.773 4.88-44.594-19.59-68.84-24.47-24.247-55.37-32.737-69.01-18.963-13.65 13.773-4.88 44.594 19.58 68.84 24.47 24.246 55.37 32.736 69.02 18.963z"/><path stroke="#000" stroke-linecap="round" stroke-linejoin="round" stroke-width="1.87" d="M1125.86 117.048c13.65-13.773 4.88-44.594-19.59-68.84-24.47-24.247-55.37-32.737-69.01-18.963-13.65 13.773-4.88 44.594 19.58 68.84 24.47 24.246 55.37 32.736 69.02 18.963z"/><path fill="#2D2F33" stroke="#000" stroke-linecap="round" stroke-linejoin="round" stroke-width="1.87" d="M541.517 348.987c-12.53-9.47-21.45-31.41-21.68-57.06-.23-25.65 8.28-47.73 20.65-57.44l-.06-6.27 13.95 1.02c19.39-.17 35.36 27.61 35.67 62.05.31 34.44-15.16 62.51-34.55 62.69-1.03 0-2.05-.08-3.07-.22l-10.89-.8-.04-3.99h.02v.02z"/><path fill="#3E4044" stroke="#000" stroke-linecap="round" stroke-linejoin="round" stroke-width="1.87" d="m587.307 268.066-21.14 1.35-.12 31.9 23.79-2.44c.15-2.49.22-5.01.19-7.57-.08-8.22-1.05-16.06-2.74-23.23l.02-.01z"/><path fill="#181A1C" stroke="#000" stroke-linecap="round" stroke-linejoin="round" stroke-width="1.87" d="m535.717 239.086 27.79 32.42 23.79-3.43c-5.4-22.88-18.16-38.96-32.93-38.82l-13.95-1.02.06 6.27c-1.66 1.3-3.25 2.85-4.76 4.58z"/><path stroke="#000" stroke-linecap="round" stroke-linejoin="round" stroke-width="1.87" d="M541.517 348.987c-12.53-9.47-21.45-31.41-21.68-57.06-.23-25.65 8.28-47.73 20.65-57.44l-.06-6.27 13.95 1.02c19.39-.17 35.36 27.61 35.67 62.05.31 34.44-15.16 62.51-34.55 62.69-1.03 0-2.05-.08-3.07-.22l-10.89-.8-.04-3.99h.02v.02z"/><path fill="#38C281" stroke="#000" stroke-linecap="round" stroke-linejoin="round" stroke-width="1.87" d="M541.541 353.028c19.39-.173 34.86-28.235 34.553-62.68-.306-34.445-16.274-62.228-35.664-62.055-19.39.173-34.86 28.235-34.553 62.68.307 34.445 16.274 62.228 35.664 62.055z"/><path stroke="#000" stroke-linecap="round" stroke-linejoin="round" stroke-width="1.87" d="M541.541 353.028c19.39-.173 34.86-28.235 34.553-62.68-.306-34.445-16.274-62.228-35.664-62.055-19.39.173-34.86 28.235-34.553 62.68.307 34.445 16.274 62.228 35.664 62.055z"/><path fill="#3E4044" stroke="#000" stroke-linecap="round" stroke-linejoin="round" stroke-width="2" d="m749.437 19.735 13.38-7.47c16.54-10.86 44.98 3.24 63.54 31.5 18.56 28.25 20.19 59.96 3.66 70.82 1.41.84-13.38 7.47-13.38 7.47l-2.6-3.96c-15.53-1.53-34.14-14.55-47.57-35-13.44-20.45-17.99-42.71-13.22-57.56l-3.81-5.8z"/><path fill="#2D2F33" d="m775.777 47.317 37.56-19.58c-3.86-3.85-7.88-7.17-11.95-9.94l-37.9 17.23 12.29 12.29z"/><path fill="#181A1C" d="m819.227 72.206 17.73-7.28c7.65 21.47 5.51 41.49-6.95 49.68 1.41.84-13.38 7.47-13.38 7.47l-2.6-3.96c-3.1-.3-6.32-1.07-9.61-2.27l14.79-43.64h.02z"/><path stroke="#000" stroke-linecap="round" stroke-linejoin="round" stroke-width="2" d="m749.437 19.735 13.38-7.47c16.54-10.86 44.98 3.24 63.54 31.5 18.56 28.25 20.19 59.96 3.66 70.82 1.41.84-13.38 7.47-13.38 7.47l-2.6-3.96c-15.53-1.53-34.14-14.55-47.57-35-13.44-20.45-17.99-42.71-13.22-57.56l-3.81-5.8z"/><path fill="#fff" d="M816.617 121.986c16.535-10.862 14.893-42.571-3.667-70.826-18.56-28.255-47.01-42.355-63.544-31.494-16.535 10.861-14.893 42.571 3.667 70.826 18.56 28.255 47.009 42.355 63.544 31.494z"/><path fill="#4B55E8" stroke="#000" stroke-linecap="round" stroke-linejoin="round" stroke-width="2" d="M816.617 121.986c16.535-10.862 14.893-42.571-3.667-70.826-18.56-28.255-47.01-42.355-63.544-31.494-16.535 10.861-14.893 42.571 3.667 70.826 18.56 28.255 47.009 42.355 63.544 31.494z"/><path fill="#3E4044" stroke="#000" stroke-linecap="round" stroke-linejoin="round" stroke-width="2" d="m801.137 252.017 13.38-7.47c16.54-10.86 44.98 3.24 63.54 31.5 18.56 28.25 20.19 59.96 3.66 70.82 1.41.84-13.38 7.47-13.38 7.47l-2.6-3.96c-15.53-1.53-34.14-14.55-47.57-35-13.44-20.45-17.99-42.71-13.22-57.56l-3.81-5.8z"/><path fill="#2D2F33" d="m827.487 279.596 37.56-19.58c-3.86-3.85-7.88-7.17-11.95-9.94l-37.9 17.23 12.29 12.29z"/><path fill="#181A1C" d="m870.937 304.487 17.73-7.28c7.65 21.47 5.51 41.49-6.95 49.68 1.41.84-13.38 7.47-13.38 7.47l-2.6-3.96c-3.1-.3-6.32-1.07-9.61-2.27l14.79-43.64h.02z"/><path stroke="#000" stroke-linecap="round" stroke-linejoin="round" stroke-width="2" d="m801.137 252.017 13.38-7.47c16.54-10.86 44.98 3.24 63.54 31.5 18.56 28.25 20.19 59.96 3.66 70.82 1.41.84-13.38 7.47-13.38 7.47l-2.6-3.96c-15.53-1.53-34.14-14.55-47.57-35-13.44-20.45-17.99-42.71-13.22-57.56l-3.81-5.8z"/><path fill="#fff" d="M868.325 354.273c16.535-10.862 14.893-42.571-3.667-70.826-18.56-28.255-47.01-42.355-63.544-31.494-16.535 10.861-14.893 42.571 3.667 70.826 18.56 28.255 47.01 42.355 63.544 31.494z"/><path fill="#4B55E8" stroke="#000" stroke-linecap="round" stroke-linejoin="round" stroke-width="2" d="M868.325 354.273c16.535-10.862 14.893-42.571-3.667-70.826-18.56-28.255-47.01-42.355-63.544-31.494-16.535 10.861-14.893 42.571 3.667 70.826 18.56 28.255 47.01 42.355 63.544 31.494z"/><path fill="#2D2F33" stroke="#000" stroke-linecap="round" stroke-linejoin="round" stroke-width="2" d="M346.047 77.026c15.5-29.87 38.83-48.51 52.12-41.62l15.18 5.75-6.36 12.27c.81 12.93-3.55 30.73-12.79 48.56-9.25 17.83-21.29 31.651-32.32 38.441l-4.63 8.92-12.51-4.731c-.92-.23-1.81-.56-2.66-1.01-13.29-6.89-11.5-36.699 3.99-66.57l-.02-.01z"/><path fill="#3E4044" stroke="#000" stroke-linecap="round" stroke-linejoin="round" stroke-width="2" d="M346.047 77.026c15.5-29.87 38.83-48.51 52.12-41.62l15.18 5.75-6.36 12.27c.81 12.93-3.55 30.73-12.79 48.56-9.25 17.83-21.29 31.651-32.32 38.441l-4.63 8.92-12.51-4.731c-.92-.23-1.81-.56-2.66-1.01-13.29-6.89-11.5-36.699 3.99-66.57l-.02-.01z"/><path fill="#181A1C" stroke="#000" stroke-linecap="round" stroke-linejoin="round" stroke-width="2" d="M356.667 59.847c14.22-19.39 30.99-29.88 41.49-24.44l15.18 5.75-3.22 6.2-29.17 25.51-25.49-11.34c.4-.57.81-1.13 1.22-1.69l-.01.01z"/><path fill="#2D2F33" stroke="#000" stroke-linecap="round" stroke-linejoin="round" stroke-width="2" d="m351.527 107.146-15.09-6.05c-5.72 20.42-4.02 37.51 5.62 42.51.85.44 1.74.77 2.66 1.01l12.51 4.73 4.63-8.92c3.26-2 6.6-4.64 9.95-7.8l-20.28-25.49v.01z"/><path fill="#4B55E8" d="M409.365 107.74c15.497-29.882 17.288-59.693 4.001-66.583-13.286-6.89-36.62 11.75-52.116 41.632-15.496 29.883-17.288 59.693-4.001 66.583 13.287 6.89 36.62-11.749 52.116-41.632z"/><path stroke="#000" stroke-linecap="round" stroke-linejoin="round" stroke-width="2" d="M409.365 107.74c15.497-29.882 17.288-59.693 4.001-66.583-13.286-6.89-36.62 11.75-52.116 41.632-15.496 29.883-17.288 59.693-4.001 66.583 13.287 6.89 36.62-11.749 52.116-41.632z"/><path fill="#2D2F33" stroke="#000" stroke-linecap="round" stroke-linejoin="round" stroke-width="2" d="M284.897 405.334c-25.75-21.67-38.82-48.52-29.18-59.97l8.93-13.54 10.58 8.9c12.78 2.04 29.2 10.2 44.57 23.14 15.37 12.93 26.22 27.71 30.42 39.96l7.7 6.47-7.37 11.17c-.43.85-.95 1.64-1.57 2.37-9.63 11.45-38.33 3.18-64.09-18.49l.01-.01z"/><path fill="#3E4044" stroke="#000" stroke-linecap="round" stroke-linejoin="round" stroke-width="2" d="M284.897 405.334c-25.75-21.67-38.82-48.52-29.18-59.97l8.93-13.54 10.58 8.9c12.78 2.04 29.2 10.2 44.57 23.14 15.37 12.93 26.22 27.71 30.42 39.96l7.7 6.47-7.37 11.17c-.43.85-.95 1.64-1.57 2.37-9.63 11.45-38.33 3.18-64.09-18.49l.01-.01z"/><path fill="#181A1C" stroke="#000" stroke-linecap="round" stroke-linejoin="round" stroke-width="2" d="M270.457 391.214c-15.8-18.12-22.36-36.79-14.75-45.85l8.93-13.54 5.35 4.5 18.49 34.06-16.65 22.38c-.47-.52-.92-1.04-1.38-1.56l.01.01z"/><path fill="#2D2F33" stroke="#000" stroke-linecap="round" stroke-linejoin="round" stroke-width="2" d="m315.477 406.606-9.21 13.39c18.67 10.06 35.71 12.15 42.71 3.83.61-.73 1.14-1.53 1.57-2.37l7.37-11.17-7.7-6.47c-1.24-3.62-3.07-7.46-5.42-11.4l-29.31 14.2-.01-.01z"/><path fill="#4B55E8" d="M357.901 410.239c9.635-11.453-3.437-38.304-29.197-59.973-25.76-21.669-54.453-29.95-64.088-18.497-9.634 11.454 3.438 38.305 29.198 59.974 25.76 21.669 54.453 29.95 64.087 18.496z"/><path stroke="#000" stroke-linecap="round" stroke-linejoin="round" stroke-width="2" d="M357.901 410.239c9.635-11.453-3.437-38.304-29.197-59.973-25.76-21.669-54.453-29.95-64.088-18.497-9.634 11.454 3.438 38.305 29.198 59.974 25.76 21.669 54.453 29.95 64.087 18.496z"/><path fill="#2D2F33" d="M692.967 488.965c6.6-10.14 17.44-21.66 31.06-32.24 13.62-10.59 27.45-18.26 38.91-22.15l15.07-11.71 9.84 12.65c7.6 9.77-8.65 35.11-36.29 56.61-27.64 21.49-56.21 30.98-63.81 21.21l-9.84-12.65 15.07-11.71-.01-.01z"/><path fill="#3E4044" stroke="#000" stroke-linecap="round" stroke-linejoin="round" stroke-width="2" d="m762.927 434.575 15.07-11.71 9.84 12.65c6.74 8.66-5.28 29.57-27.36 49.18l-8.79-13.58-4.07-29.78c5.4-2.86 10.57-5.14 15.32-6.76h-.01z"/><path stroke="#000" stroke-linecap="round" stroke-linejoin="round" stroke-width="2" d="M692.967 488.965c6.6-10.14 17.44-21.66 31.06-32.24 13.62-10.59 27.45-18.26 38.91-22.15l15.07-11.71 9.84 12.65c7.6 9.77-8.65 35.11-36.29 56.61-27.64 21.49-56.21 30.98-63.81 21.21l-9.84-12.65 15.07-11.71-.01-.01z"/><path fill="#4B55E8" d="M741.715 479.507c27.645-21.49 43.895-46.836 36.295-56.612-7.599-9.776-36.17-.28-63.815 21.21-27.644 21.49-43.894 46.836-36.295 56.612 7.599 9.775 36.17.279 63.815-21.21z"/><path stroke="#000" stroke-linecap="round" stroke-linejoin="round" stroke-width="2" d="M741.715 479.507c27.645-21.49 43.895-46.836 36.295-56.612-7.599-9.776-36.17-.28-63.815 21.21-27.644 21.49-43.894 46.836-36.295 56.612 7.599 9.775 36.17.279 63.815-21.21z"/><path fill="#2D2F33" stroke="#000" stroke-linecap="round" stroke-linejoin="round" stroke-width="1.87" d="M1131.12 308.904c-4.29 33.38-19.8 58.9-34.65 56.99l-16.22-.19 1.76-13.71c-5.2-11.86-7.22-30.08-4.66-50 2.56-19.92 9.12-37.04 17.14-47.2l1.29-9.97 13.38.15c.95-.1 1.9-.09 2.85.03 14.85 1.91 23.41 30.52 19.13 63.9h-.02z"/><path fill="#2D2F33" stroke="#000" stroke-linecap="round" stroke-linejoin="round" stroke-width="1.87" d="M1131.12 308.904c-4.29 33.38-19.8 58.9-34.65 56.99l-16.22-.19 1.76-13.71c-5.2-11.86-7.22-30.08-4.66-50 2.56-19.92 9.12-37.04 17.14-47.2l1.29-9.97 13.38.15c.95-.1 1.9-.09 2.85.03 14.85 1.91 23.41 30.52 19.13 63.9h-.02z"/><path fill="#3E4044" stroke="#000" stroke-linecap="round" stroke-linejoin="round" stroke-width="1.87" d="M1127.04 328.695c-6.7 23.1-18.84 38.71-30.58 37.2l-16.22-.19.89-6.94 18.64-33.98 27.83 1.89c-.18.67-.38 1.34-.56 2.01v.01z"/><path fill="#38C281" d="M1114.85 308.7c4.29-33.387-4.27-61.999-19.11-63.906-14.85-1.907-30.36 23.613-34.65 57.001-4.29 33.387 4.27 61.999 19.11 63.906 14.85 1.907 30.36-23.613 34.65-57.001z"/><path stroke="#000" stroke-linecap="round" stroke-linejoin="round" stroke-width="1.87" d="m1129.25 319.875-15.9-1.75m1.5-9.425c4.29-33.387-4.27-61.999-19.11-63.906-14.85-1.907-30.36 23.613-34.65 57.001-4.29 33.387 4.27 61.999 19.11 63.906 14.85 1.907 30.36-23.613 34.65-57.001z"/><defs><radialGradient id="g" cx="0" cy="0" r="1" gradientTransform="rotate(170.84 301.212 177.697) scale(23.17)" gradientUnits="userSpaceOnUse"><stop stop-color="#fff" stop-opacity=".99"/><stop offset=".23" stop-color="#fff" stop-opacity=".69"/><stop offset=".43" stop-color="#fff" stop-opacity=".45"/><stop offset=".62" stop-color="#fff" stop-opacity=".25"/><stop offset=".78" stop-color="#fff" stop-opacity=".12"/><stop offset=".91" stop-color="#fff" stop-opacity=".03"/><stop offset="1" stop-color="#fff" stop-opacity="0"/></radialGradient><radialGradient id="h" cx="0" cy="0" r="1" gradientTransform="translate(-3190.75 568.235) scale(22.02)" gradientUnits="userSpaceOnUse"><stop stop-color="#fff" stop-opacity=".99"/><stop offset=".23" stop-color="#fff" stop-opacity=".69"/><stop offset=".43" stop-color="#fff" stop-opacity=".45"/><stop offset=".62" stop-color="#fff" stop-opacity=".25"/><stop offset=".78" stop-color="#fff" stop-opacity=".12"/><stop offset=".91" stop-color="#fff" stop-opacity=".03"/><stop offset="1" stop-color="#fff" stop-opacity="0"/></radialGradient><radialGradient id="i" cx="0" cy="0" r="1" gradientTransform="translate(-2990.98 150.396) scale(23.17)" gradientUnits="userSpaceOnUse"><stop stop-color="#fff" stop-opacity=".99"/><stop offset=".23" stop-color="#fff" stop-opacity=".69"/><stop offset=".43" stop-color="#fff" stop-opacity=".45"/><stop offset=".62" stop-color="#fff" stop-opacity=".25"/><stop offset=".78" stop-color="#fff" stop-opacity=".12"/><stop offset=".91" stop-color="#fff" stop-opacity=".03"/><stop offset="1" stop-color="#fff" stop-opacity="0"/></radialGradient><radialGradient id="j" cx="0" cy="0" r="1" gradientTransform="translate(-3007.79 172.195) scale(22.02)" gradientUnits="userSpaceOnUse"><stop stop-color="#fff" stop-opacity=".99"/><stop offset=".23" stop-color="#fff" stop-opacity=".69"/><stop offset=".43" stop-color="#fff" stop-opacity=".45"/><stop offset=".62" stop-color="#fff" stop-opacity=".25"/><stop offset=".78" stop-color="#fff" stop-opacity=".12"/><stop offset=".91" stop-color="#fff" stop-opacity=".03"/><stop offset="1" stop-color="#fff" stop-opacity="0"/></radialGradient><radialGradient id="k" cx="0" cy="0" r="1" gradientTransform="translate(428.997 352.995) scale(25.45)" gradientUnits="userSpaceOnUse"><stop stop-color="#fff" stop-opacity=".99"/><stop offset=".23" stop-color="#fff" stop-opacity=".69"/><stop offset=".43" stop-color="#fff" stop-opacity=".45"/><stop offset=".62" stop-color="#fff" stop-opacity=".25"/><stop offset=".78" stop-color="#fff" stop-opacity=".12"/><stop offset=".91" stop-color="#fff" stop-opacity=".03"/><stop offset="1" stop-color="#fff" stop-opacity="0"/></radialGradient><radialGradient id="l" cx="0" cy="0" r="1" gradientTransform="translate(809.527 449.395) scale(23.17)" gradientUnits="userSpaceOnUse"><stop stop-color="#fff" stop-opacity=".99"/><stop offset=".23" stop-color="#fff" stop-opacity=".69"/><stop offset=".43" stop-color="#fff" stop-opacity=".45"/><stop offset=".62" stop-color="#fff" stop-opacity=".25"/><stop offset=".78" stop-color="#fff" stop-opacity=".12"/><stop offset=".91" stop-color="#fff" stop-opacity=".03"/><stop offset="1" stop-color="#fff" stop-opacity="0"/></radialGradient><radialGradient id="m" cx="0" cy="0" r="1" gradientTransform="translate(792.717 471.206) scale(22.02)" gradientUnits="userSpaceOnUse"><stop stop-color="#fff" stop-opacity=".99"/><stop offset=".23" stop-color="#fff" stop-opacity=".69"/><stop offset=".43" stop-color="#fff" stop-opacity=".45"/><stop offset=".62" stop-color="#fff" stop-opacity=".25"/><stop offset=".78" stop-color="#fff" stop-opacity=".12"/><stop offset=".91" stop-color="#fff" stop-opacity=".03"/><stop offset="1" stop-color="#fff" stop-opacity="0"/></radialGradient><linearGradient id="b" x1="284.497" x2="994.507" y1="684.485" y2="684.485" gradientUnits="userSpaceOnUse"><stop offset=".03" stop-color="#38C281"/><stop offset="1" stop-color="#4B55E8"/></linearGradient><linearGradient id="c" x1="406.687" x2="872.317" y1="623.546" y2="623.546" gradientUnits="userSpaceOnUse"><stop offset=".03" stop-color="#38C281"/><stop offset="1" stop-color="#4B55E8"/></linearGradient><linearGradient id="e" x1="651.317" x2="651.317" y1="880.446" y2="213.006" gradientUnits="userSpaceOnUse"><stop offset=".07" stop-color="#fff"/><stop offset=".17" stop-color="#fff" stop-opacity=".82"/><stop offset=".32" stop-color="#fff" stop-opacity=".57"/><stop offset=".47" stop-color="#fff" stop-opacity=".37"/><stop offset=".6" stop-color="#fff" stop-opacity=".21"/><stop offset=".72" stop-color="#fff" stop-opacity=".09"/><stop offset=".83" stop-color="#fff" stop-opacity=".02"/><stop offset=".91" stop-color="#fff" stop-opacity="0"/></linearGradient><linearGradient id="f" x1="634.907" x2="634.907" y1="577.805" y2="757.585" gradientUnits="userSpaceOnUse"><stop stop-color="#fff"/><stop offset=".12" stop-color="#fff" stop-opacity=".82"/><stop offset=".3" stop-color="#fff" stop-opacity=".57"/><stop offset=".48" stop-color="#fff" stop-opacity=".37"/><stop offset=".64" stop-color="#fff" stop-opacity=".21"/><stop offset=".78" stop-color="#fff" stop-opacity=".09"/><stop offset=".91" stop-color="#fff" stop-opacity=".02"/><stop offset="1" stop-color="#fff" stop-opacity="0"/></linearGradient><linearGradient id="n" x1="760.377" x2="760.377" y1="279.105" y2="423.135" gradientUnits="userSpaceOnUse"><stop stop-color="#fff"/><stop offset=".12" stop-color="#fff" stop-opacity=".82"/><stop offset=".3" stop-color="#fff" stop-opacity=".57"/><stop offset=".48" stop-color="#fff" stop-opacity=".37"/><stop offset=".64" stop-color="#fff" stop-opacity=".21"/><stop offset=".78" stop-color="#fff" stop-opacity=".09"/><stop offset=".91" stop-color="#fff" stop-opacity=".02"/><stop offset="1" stop-color="#fff" stop-opacity="0"/></linearGradient><linearGradient id="o" x1="520.267" x2="520.267" y1="334.395" y2="446.135" gradientUnits="userSpaceOnUse"><stop stop-color="#fff"/><stop offset=".12" stop-color="#fff" stop-opacity=".82"/><stop offset=".3" stop-color="#fff" stop-opacity=".57"/><stop offset=".48" stop-color="#fff" stop-opacity=".37"/><stop offset=".64" stop-color="#fff" stop-opacity=".21"/><stop offset=".78" stop-color="#fff" stop-opacity=".09"/><stop offset=".91" stop-color="#fff" stop-opacity=".02"/><stop offset="1" stop-color="#fff" stop-opacity="0"/></linearGradient><linearGradient id="p" x1="786.807" x2="786.807" y1="547.466" y2="693.886" gradientUnits="userSpaceOnUse"><stop stop-color="#fff"/><stop offset=".12" stop-color="#fff" stop-opacity=".82"/><stop offset=".3" stop-color="#fff" stop-opacity=".57"/><stop offset=".48" stop-color="#fff" stop-opacity=".37"/><stop offset=".64" stop-color="#fff" stop-opacity=".21"/><stop offset=".78" stop-color="#fff" stop-opacity=".09"/><stop offset=".91" stop-color="#fff" stop-opacity=".02"/><stop offset="1" stop-color="#fff" stop-opacity="0"/></linearGradient></defs></svg>